<svg width="47" height="47" viewBox="0 0 47 47" fill="none" xmlns="http://www.w3.org/2000/svg">
<path d="M41.4922 7.34375H5.50781C5.30586 7.34375 5.14062 7.50898 5.14062 7.71094V10.6484C5.14062 10.8504 5.30586 11.0156 5.50781 11.0156H41.4922C41.6941 11.0156 41.8594 10.8504 41.8594 10.6484V7.71094C41.8594 7.50898 41.6941 7.34375 41.4922 7.34375ZM41.4922 35.9844H5.50781C5.30586 35.9844 5.14062 36.1496 5.14062 36.3516V39.2891C5.14062 39.491 5.30586 39.6562 5.50781 39.6562H41.4922C41.6941 39.6562 41.8594 39.491 41.8594 39.2891V36.3516C41.8594 36.1496 41.6941 35.9844 41.4922 35.9844ZM41.4922 21.6641H5.50781C5.30586 21.6641 5.14062 21.8293 5.14062 22.0312V24.9688C5.14062 25.1707 5.30586 25.3359 5.50781 25.3359H41.4922C41.6941 25.3359 41.8594 25.1707 41.8594 24.9688V22.0312C41.8594 21.8293 41.6941 21.6641 41.4922 21.6641Z" fill="#EFAA15"/>
</svg>
