<svg width="50" height="50" viewBox="0 0 50 50" fill="none" xmlns="http://www.w3.org/2000/svg">
<path d="M43.8834 8.75479L43.8165 8.71299L35.3602 4.54688L26.2329 16.7165L30.4321 22.3158C30.3065 24.4275 29.411 26.4198 27.9152 27.9155C26.4194 29.4113 24.4271 30.3068 22.3154 30.4324L16.7162 26.2332L4.54669 35.3603L8.67813 43.7459L8.7129 43.8167L8.75479 43.8835C8.97527 44.2387 9.283 44.5316 9.64869 44.7343C10.0144 44.937 10.4259 45.0427 10.844 45.0414H13.026C17.2303 45.0414 21.3934 44.2133 25.2777 42.6044C29.162 40.9955 32.6913 38.6372 35.6642 35.6643C38.6371 32.6914 40.9953 29.1621 42.6042 25.2778C44.2131 21.3935 45.0412 17.2304 45.0412 13.0261V10.8439C45.0426 10.4259 44.9369 10.0144 44.7342 9.64869C44.5315 9.283 44.2386 8.97526 43.8834 8.75479ZM41.9162 13.0261C41.9162 28.9562 28.9561 41.9164 13.026 41.9164H11.2604L8.4961 36.3048L16.7168 30.1393L21.2937 33.5718H21.8145C24.9318 33.5683 27.9204 32.3284 30.1246 30.1241C32.3289 27.9199 33.5688 24.9313 33.5723 21.814V21.2932L30.1398 16.7164L36.3046 8.49619L41.9162 11.2609V13.0261Z" fill="#EFAA15"/>
</svg>
