<svg width="30" height="30" viewBox="0 0 30 30" fill="none" xmlns="http://www.w3.org/2000/svg">
<path d="M0 15.0901C0.000844848 18.6841 1.27571 22.16 3.59544 24.8929C5.91518 27.6259 9.12767 29.4367 12.6555 30V19.4519H8.85V15.0901H12.66V11.7698C12.5759 10.9926 12.6628 10.2064 12.9147 9.4669C13.1666 8.7274 13.5773 8.05277 14.1175 7.49094C14.6577 6.9291 15.3142 6.49384 16.0404 6.21606C16.7667 5.93828 17.5448 5.82481 18.3195 5.88369C19.4445 5.9018 20.5695 6.00292 21.6795 6.18554V9.89679H19.7835C19.4613 9.85432 19.1336 9.88526 18.8249 9.98731C18.5161 10.0894 18.2341 10.2599 17.9997 10.4864C17.7652 10.7129 17.5844 10.9894 17.4704 11.2957C17.3565 11.602 17.3125 11.9301 17.3415 12.2557V15.0901H21.498L20.8335 19.4534H17.3415V30C20.1729 29.5498 22.8169 28.2926 24.9602 26.3775C27.1036 24.4623 28.6567 21.9692 29.4356 19.1935C30.2145 16.4178 30.1867 13.4756 29.3553 10.7153C28.5239 7.95502 26.9239 5.49224 24.7446 3.61852C22.5653 1.74481 19.898 0.538633 17.0585 0.142809C14.2191 -0.253015 11.3264 0.178086 8.72288 1.38507C6.11938 2.59206 3.91412 4.52438 2.36821 6.95326C0.822291 9.38214 0.000455055 12.2059 0 15.0901V15.0901Z" fill="#EFAA15"/>
</svg>
