<svg width="23" height="23" viewBox="0 0 23 23" fill="none" xmlns="http://www.w3.org/2000/svg">
<path d="M20.3968 7.93106L14.694 7.10225L12.1446 1.93399C12.075 1.79249 11.9605 1.67794 11.8189 1.60831C11.4641 1.43311 11.0328 1.57911 10.8554 1.93399L8.30606 7.10225L2.60323 7.93106C2.446 7.95352 2.30225 8.02765 2.19219 8.13995C2.05914 8.27671 1.98582 8.46069 1.98834 8.65148C1.99087 8.84227 2.06904 9.02425 2.20567 9.15743L6.33174 13.1802L5.35694 18.8606C5.33408 18.9927 5.3487 19.1286 5.39915 19.2528C5.44959 19.3771 5.53384 19.4847 5.64235 19.5635C5.75085 19.6423 5.87926 19.6892 6.01302 19.6987C6.14678 19.7082 6.28054 19.6801 6.39913 19.6175L11.5 16.9357L16.6009 19.6175C16.7401 19.6916 16.9019 19.7163 17.0568 19.6894C17.4477 19.622 17.7105 19.2514 17.6431 18.8606L16.6683 13.1802L20.7943 9.15743C20.9066 9.04737 20.9808 8.90362 21.0032 8.7464C21.0639 8.35333 20.7898 7.98946 20.3968 7.93106Z" fill="#EFAA15"/>
</svg>
